# xmcd
#
# Track frame offsets:
# 182
# 17802
# 34837
# 49627
# 66332
# 79102
# 97515
# 114660
# 131405
# 146725
# 164685
# 181070
# 196880
# 212570
# 226242
# 244815
#
# Disc length: 3473 seconds
#
#
# Revision: 0
# Processed by: cddbd v1.5.1PL2 Copyright (c) Steve Scherf et al.
# Submitted via: FreeRIP 2.944 
#
DISCID=d40d8f10
DTITLE=Gian e Giovani - Os Grandes Sucessos
DYEAR=1900
DGENRE=Country
TTITLE0=Olha Amor
TTITLE1=Nem Dormindo Consigo Te Esquecer
TTITLE2=Amante Anônimo
TTITLE3=Caçador de Corações
TTITLE4=Espuma da Cerveja
TTITLE5=Faz de Conta (L'Italiano)
TTITLE6=Agora Sei Que Te Amava
TTITLE7=Sai Dessa Coração
TTITLE8=Você em Minha Vida
TTITLE9=Meto o Pé na Porta
TTITLE10=Roupa de Lua de Mel
TTITLE11=Não Da Prá Te Esquecer
TTITLE12=Meu Coração Só Quer Você
TTITLE13=Grão de Areia
TTITLE14=Cansei de Namorar a Solidão
TTITLE15=De Que Planeta Você Veio
EXTD=
EXTT0=
EXTT1=
EXTT2=
EXTT3=
EXTT4=
EXTT5=
EXTT6=
EXTT7=
EXTT8=
EXTT9=
EXTT10=
EXTT11=
EXTT12=
EXTT13=
EXTT14=
EXTT15=
PLAYORDER=
